<mxfile host="app.diagrams.net" modified="2022-01-12T15:27:05.634Z" agent="5.0 (Macintosh; Intel Mac OS X 10_15_7) AppleWebKit/537.36 (KHTML, like Gecko) Chrome/96.0.4664.110 Safari/537.36" etag="JWo1G3i5oqx3wKKmnNeN" version="16.2.4" type="github">
  <diagram id="ttS12219Z9fb7HEepqKP" name="Page-1">
    <mxGraphModel dx="1833" dy="988" grid="1" gridSize="10" guides="1" tooltips="1" connect="1" arrows="1" fold="1" page="1" pageScale="1" pageWidth="1169" pageHeight="1654" math="0" shadow="0">
      <root>
        <mxCell id="0" />
        <mxCell id="1" parent="0" />
        <mxCell id="IHWfYEhJ58rmt1wWLUCN-49" value="" style="rounded=0;whiteSpace=wrap;html=1;glass=0;labelBackgroundColor=none;comic=0;sketch=0;fontSize=16;fontColor=#4D4D4D;" parent="1" vertex="1">
          <mxGeometry x="330" y="930" width="600" height="130" as="geometry" />
        </mxCell>
        <mxCell id="IHWfYEhJ58rmt1wWLUCN-50" value="" style="rounded=0;whiteSpace=wrap;html=1;glass=0;labelBackgroundColor=none;comic=0;sketch=0;fontSize=16;fontColor=#4D4D4D;" parent="1" vertex="1">
          <mxGeometry x="330" y="710" width="600" height="150" as="geometry" />
        </mxCell>
        <mxCell id="IHWfYEhJ58rmt1wWLUCN-79" style="edgeStyle=none;rounded=0;orthogonalLoop=1;jettySize=auto;html=1;fontSize=14;fontColor=#4D4D4D;strokeColor=#00FF80;strokeWidth=3;" parent="1" source="IHWfYEhJ58rmt1wWLUCN-51" target="IHWfYEhJ58rmt1wWLUCN-73" edge="1">
          <mxGeometry relative="1" as="geometry" />
        </mxCell>
        <mxCell id="IHWfYEhJ58rmt1wWLUCN-51" value="缓存" style="shape=cylinder3;whiteSpace=wrap;html=1;boundedLbl=1;backgroundOutline=1;size=15;glass=0;labelBackgroundColor=none;comic=0;sketch=0;fontSize=16;fillColor=#cdeb8b;strokeColor=#36393d;" parent="1" vertex="1">
          <mxGeometry x="350" y="745" width="100" height="70" as="geometry" />
        </mxCell>
        <mxCell id="IHWfYEhJ58rmt1wWLUCN-52" style="edgeStyle=orthogonalEdgeStyle;rounded=0;orthogonalLoop=1;jettySize=auto;html=1;fontSize=16;fontColor=#4D4D4D;strokeWidth=3;strokeColor=#FF0000;" parent="1" source="IHWfYEhJ58rmt1wWLUCN-54" target="IHWfYEhJ58rmt1wWLUCN-55" edge="1">
          <mxGeometry relative="1" as="geometry" />
        </mxCell>
        <mxCell id="IHWfYEhJ58rmt1wWLUCN-53" style="edgeStyle=orthogonalEdgeStyle;rounded=0;orthogonalLoop=1;jettySize=auto;html=1;fontSize=16;fontColor=#4D4D4D;strokeWidth=3;strokeColor=#00FF80;" parent="1" source="IHWfYEhJ58rmt1wWLUCN-54" target="IHWfYEhJ58rmt1wWLUCN-51" edge="1">
          <mxGeometry relative="1" as="geometry" />
        </mxCell>
        <mxCell id="IHWfYEhJ58rmt1wWLUCN-57" style="edgeStyle=orthogonalEdgeStyle;rounded=0;orthogonalLoop=1;jettySize=auto;html=1;exitX=0.75;exitY=1;exitDx=0;exitDy=0;entryX=0.75;entryY=0;entryDx=0;entryDy=0;fontSize=16;fontColor=#4D4D4D;strokeColor=#999999;strokeWidth=3;" parent="1" source="IHWfYEhJ58rmt1wWLUCN-54" target="IHWfYEhJ58rmt1wWLUCN-44" edge="1">
          <mxGeometry relative="1" as="geometry" />
        </mxCell>
        <mxCell id="IHWfYEhJ58rmt1wWLUCN-54" value="ExtClassLoader" style="rounded=0;whiteSpace=wrap;html=1;glass=0;labelBackgroundColor=none;comic=0;sketch=0;fontSize=16;fillColor=#cce5ff;strokeColor=#36393d;" parent="1" vertex="1">
          <mxGeometry x="500" y="750" width="150" height="60" as="geometry" />
        </mxCell>
        <mxCell id="IHWfYEhJ58rmt1wWLUCN-86" style="edgeStyle=none;rounded=0;orthogonalLoop=1;jettySize=auto;html=1;fontSize=14;fontColor=#4D4D4D;endArrow=none;endFill=0;strokeColor=#FF0000;strokeWidth=3;" parent="1" source="IHWfYEhJ58rmt1wWLUCN-55" edge="1">
          <mxGeometry relative="1" as="geometry">
            <mxPoint x="1030" y="779.0000000000002" as="targetPoint" />
          </mxGeometry>
        </mxCell>
        <mxCell id="IHWfYEhJ58rmt1wWLUCN-55" value="&lt;span style=&quot;color: rgb(33 , 37 , 41) ; background-color: rgb(255 , 255 , 255) ; font-size: 14px&quot;&gt;$JAVA_HOME中jre/lib/ext/*.jar&lt;br&gt;或&lt;br&gt;-Djava.ext.dirs指定目录下的jar包&lt;/span&gt;" style="shape=document;whiteSpace=wrap;html=1;boundedLbl=1;glass=0;labelBackgroundColor=none;comic=0;sketch=0;fontSize=14;fontColor=#4D4D4D;" parent="1" vertex="1">
          <mxGeometry x="700" y="728.6899999999999" width="210" height="100.62" as="geometry" />
        </mxCell>
        <mxCell id="IHWfYEhJ58rmt1wWLUCN-56" style="edgeStyle=orthogonalEdgeStyle;rounded=0;orthogonalLoop=1;jettySize=auto;html=1;exitX=0.25;exitY=0;exitDx=0;exitDy=0;entryX=0.25;entryY=1;entryDx=0;entryDy=0;fontSize=16;fontColor=#4D4D4D;strokeWidth=3;strokeColor=#FFD966;" parent="1" source="IHWfYEhJ58rmt1wWLUCN-44" target="IHWfYEhJ58rmt1wWLUCN-54" edge="1">
          <mxGeometry relative="1" as="geometry" />
        </mxCell>
        <mxCell id="IHWfYEhJ58rmt1wWLUCN-59" value="向上委托" style="text;html=1;strokeColor=none;fillColor=none;align=center;verticalAlign=middle;whiteSpace=wrap;rounded=0;glass=0;labelBackgroundColor=default;comic=0;sketch=0;fontSize=14;fontColor=#4D4D4D;fontStyle=1" parent="1" vertex="1">
          <mxGeometry x="510" y="886" width="60" height="30" as="geometry" />
        </mxCell>
        <mxCell id="IHWfYEhJ58rmt1wWLUCN-60" value="向下查找" style="text;html=1;strokeColor=none;fillColor=none;align=center;verticalAlign=middle;whiteSpace=wrap;rounded=0;glass=0;labelBackgroundColor=default;comic=0;sketch=0;fontSize=14;fontColor=#4D4D4D;fontStyle=1" parent="1" vertex="1">
          <mxGeometry x="590" y="886" width="60" height="30" as="geometry" />
        </mxCell>
        <mxCell id="IHWfYEhJ58rmt1wWLUCN-73" value="class对象" style="shape=note;whiteSpace=wrap;html=1;backgroundOutline=1;darkOpacity=0.05;glass=0;labelBackgroundColor=default;comic=0;sketch=0;fontSize=14;fontColor=#4D4D4D;" parent="1" vertex="1">
          <mxGeometry x="60" y="755" width="150" height="60" as="geometry" />
        </mxCell>
        <mxCell id="IHWfYEhJ58rmt1wWLUCN-74" value="" style="endArrow=classic;html=1;rounded=0;fontSize=14;fontColor=#4D4D4D;strokeColor=#3333FF;strokeWidth=3;startArrow=none;" parent="1" source="IHWfYEhJ58rmt1wWLUCN-75" edge="1">
          <mxGeometry width="50" height="50" relative="1" as="geometry">
            <mxPoint x="574" y="1220" as="sourcePoint" />
            <mxPoint x="574.41" y="1020" as="targetPoint" />
          </mxGeometry>
        </mxCell>
        <mxCell id="IHWfYEhJ58rmt1wWLUCN-75" value="请求加载" style="text;html=1;strokeColor=none;fillColor=none;align=center;verticalAlign=middle;whiteSpace=wrap;rounded=0;glass=0;labelBackgroundColor=default;comic=0;sketch=0;fontSize=14;fontColor=#4D4D4D;fontStyle=1" parent="1" vertex="1">
          <mxGeometry x="545" y="1122" width="60" height="30" as="geometry" />
        </mxCell>
        <mxCell id="IHWfYEhJ58rmt1wWLUCN-76" value="" style="endArrow=none;html=1;rounded=0;fontSize=14;fontColor=#4D4D4D;strokeColor=#3333FF;strokeWidth=3;" parent="1" target="IHWfYEhJ58rmt1wWLUCN-75" edge="1">
          <mxGeometry width="50" height="50" relative="1" as="geometry">
            <mxPoint x="574" y="1190" as="sourcePoint" />
            <mxPoint x="574.4099999999994" y="1020" as="targetPoint" />
          </mxGeometry>
        </mxCell>
        <mxCell id="IHWfYEhJ58rmt1wWLUCN-77" style="edgeStyle=orthogonalEdgeStyle;rounded=0;orthogonalLoop=1;jettySize=auto;html=1;fontSize=14;fontColor=#4D4D4D;strokeColor=#FF0000;strokeWidth=3;entryX=0.5;entryY=1;entryDx=0;entryDy=0;entryPerimeter=0;" parent="1" source="IHWfYEhJ58rmt1wWLUCN-62" target="IHWfYEhJ58rmt1wWLUCN-73" edge="1">
          <mxGeometry relative="1" as="geometry">
            <mxPoint x="1140" y="630" as="targetPoint" />
            <Array as="points">
              <mxPoint x="1030" y="545" />
              <mxPoint x="1030" y="1100" />
              <mxPoint x="135" y="1100" />
            </Array>
          </mxGeometry>
        </mxCell>
        <mxCell id="IHWfYEhJ58rmt1wWLUCN-78" style="rounded=0;orthogonalLoop=1;jettySize=auto;html=1;entryX=0.5;entryY=0;entryDx=0;entryDy=0;entryPerimeter=0;fontSize=14;fontColor=#4D4D4D;strokeColor=#00FF80;strokeWidth=3;" parent="1" source="IHWfYEhJ58rmt1wWLUCN-63" target="IHWfYEhJ58rmt1wWLUCN-73" edge="1">
          <mxGeometry relative="1" as="geometry" />
        </mxCell>
        <mxCell id="IHWfYEhJ58rmt1wWLUCN-80" style="edgeStyle=none;rounded=0;orthogonalLoop=1;jettySize=auto;html=1;entryX=0.72;entryY=1;entryDx=0;entryDy=0;entryPerimeter=0;fontSize=14;fontColor=#4D4D4D;strokeColor=#00FF80;strokeWidth=3;" parent="1" source="IHWfYEhJ58rmt1wWLUCN-42" target="IHWfYEhJ58rmt1wWLUCN-73" edge="1">
          <mxGeometry relative="1" as="geometry" />
        </mxCell>
        <mxCell id="IHWfYEhJ58rmt1wWLUCN-62" value="" style="rounded=0;whiteSpace=wrap;html=1;glass=0;labelBackgroundColor=none;comic=0;sketch=0;fontSize=16;fontColor=#4D4D4D;" parent="1" vertex="1">
          <mxGeometry x="330" y="480" width="600" height="140" as="geometry" />
        </mxCell>
        <mxCell id="IHWfYEhJ58rmt1wWLUCN-63" value="缓存" style="shape=cylinder3;whiteSpace=wrap;html=1;boundedLbl=1;backgroundOutline=1;size=15;glass=0;labelBackgroundColor=none;comic=0;sketch=0;fontSize=16;fillColor=#cdeb8b;strokeColor=#36393d;" parent="1" vertex="1">
          <mxGeometry x="350" y="504.61538461538464" width="100" height="80.76923076923077" as="geometry" />
        </mxCell>
        <mxCell id="IHWfYEhJ58rmt1wWLUCN-64" style="edgeStyle=orthogonalEdgeStyle;rounded=0;orthogonalLoop=1;jettySize=auto;html=1;fontSize=16;fontColor=#4D4D4D;strokeColor=#00FF80;strokeWidth=3;" parent="1" source="IHWfYEhJ58rmt1wWLUCN-65" target="IHWfYEhJ58rmt1wWLUCN-63" edge="1">
          <mxGeometry relative="1" as="geometry" />
        </mxCell>
        <mxCell id="IHWfYEhJ58rmt1wWLUCN-65" value="Bootstrap&lt;br&gt;ClassLoader" style="rounded=0;whiteSpace=wrap;html=1;glass=0;labelBackgroundColor=none;comic=0;sketch=0;fontSize=16;fillColor=#cce5ff;strokeColor=#36393d;" parent="1" vertex="1">
          <mxGeometry x="500" y="510.38461538461536" width="150" height="69.23076923076924" as="geometry" />
        </mxCell>
        <mxCell id="IHWfYEhJ58rmt1wWLUCN-66" value="&lt;span style=&quot;color: rgb(33 , 37 , 41) ; font-family: , , &amp;#34;segoe ui&amp;#34; , &amp;#34;roboto&amp;#34; , &amp;#34;helvetica neue&amp;#34; , &amp;#34;arial&amp;#34; , &amp;#34;noto sans&amp;#34; , &amp;#34;liberation sans&amp;#34; , sans-serif , &amp;#34;apple color emoji&amp;#34; , &amp;#34;segoe ui emoji&amp;#34; , &amp;#34;segoe ui symbol&amp;#34; , &amp;#34;noto color emoji&amp;#34; ; background-color: rgb(255 , 255 , 255)&quot;&gt;&lt;br&gt;$JAVA_HOME中jre/lib/*.jar&lt;br&gt;&lt;br&gt;&lt;/span&gt;" style="shape=document;whiteSpace=wrap;html=1;boundedLbl=1;glass=0;labelBackgroundColor=none;comic=0;sketch=0;fontSize=16;fontColor=#4D4D4D;" parent="1" vertex="1">
          <mxGeometry x="700" y="500.1" width="210" height="89.81" as="geometry" />
        </mxCell>
        <mxCell id="IHWfYEhJ58rmt1wWLUCN-67" style="edgeStyle=orthogonalEdgeStyle;rounded=0;orthogonalLoop=1;jettySize=auto;html=1;fontSize=16;fontColor=#4D4D4D;strokeWidth=3;strokeColor=#FF0000;" parent="1" source="IHWfYEhJ58rmt1wWLUCN-65" target="IHWfYEhJ58rmt1wWLUCN-66" edge="1">
          <mxGeometry relative="1" as="geometry" />
        </mxCell>
        <mxCell id="IHWfYEhJ58rmt1wWLUCN-68" style="edgeStyle=orthogonalEdgeStyle;rounded=0;orthogonalLoop=1;jettySize=auto;html=1;exitX=0.25;exitY=0;exitDx=0;exitDy=0;entryX=0.25;entryY=1;entryDx=0;entryDy=0;fontSize=14;fontColor=#4D4D4D;strokeColor=#FFD966;strokeWidth=3;" parent="1" source="IHWfYEhJ58rmt1wWLUCN-54" target="IHWfYEhJ58rmt1wWLUCN-65" edge="1">
          <mxGeometry relative="1" as="geometry" />
        </mxCell>
        <mxCell id="IHWfYEhJ58rmt1wWLUCN-69" style="edgeStyle=orthogonalEdgeStyle;rounded=0;orthogonalLoop=1;jettySize=auto;html=1;exitX=0.75;exitY=1;exitDx=0;exitDy=0;entryX=0.75;entryY=0;entryDx=0;entryDy=0;fontSize=14;fontColor=#4D4D4D;strokeColor=#999999;strokeWidth=3;" parent="1" source="IHWfYEhJ58rmt1wWLUCN-65" target="IHWfYEhJ58rmt1wWLUCN-54" edge="1">
          <mxGeometry relative="1" as="geometry" />
        </mxCell>
        <mxCell id="IHWfYEhJ58rmt1wWLUCN-72" value="向下查找" style="text;html=1;strokeColor=none;fillColor=none;align=center;verticalAlign=middle;whiteSpace=wrap;rounded=0;glass=0;labelBackgroundColor=default;comic=0;sketch=0;fontSize=14;fontColor=#4D4D4D;fontStyle=1" parent="1" vertex="1">
          <mxGeometry x="587" y="650" width="60" height="30" as="geometry" />
        </mxCell>
        <mxCell id="IHWfYEhJ58rmt1wWLUCN-84" style="edgeStyle=none;rounded=0;orthogonalLoop=1;jettySize=auto;html=1;fontSize=14;fontColor=#4D4D4D;strokeColor=#FF0000;strokeWidth=3;endArrow=none;endFill=0;exitX=1.008;exitY=0.611;exitDx=0;exitDy=0;exitPerimeter=0;" parent="1" edge="1">
          <mxGeometry relative="1" as="geometry">
            <mxPoint x="820" y="1100" as="targetPoint" />
            <mxPoint x="819.9999999999998" y="1026.16882" as="sourcePoint" />
          </mxGeometry>
        </mxCell>
        <mxCell id="IHWfYEhJ58rmt1wWLUCN-70" value="向上委托" style="text;html=1;strokeColor=none;fillColor=none;align=center;verticalAlign=middle;whiteSpace=wrap;rounded=0;glass=0;labelBackgroundColor=default;comic=0;sketch=0;fontSize=14;fontColor=#4D4D4D;fontStyle=1" parent="1" vertex="1">
          <mxGeometry x="512" y="650" width="60" height="30" as="geometry" />
        </mxCell>
        <mxCell id="IHWfYEhJ58rmt1wWLUCN-42" value="缓存" style="shape=cylinder3;whiteSpace=wrap;html=1;boundedLbl=1;backgroundOutline=1;size=15;glass=0;labelBackgroundColor=none;comic=0;sketch=0;fontSize=16;fillColor=#cdeb8b;strokeColor=#36393d;" parent="1" vertex="1">
          <mxGeometry x="350" y="960" width="100" height="70" as="geometry" />
        </mxCell>
        <mxCell id="IHWfYEhJ58rmt1wWLUCN-48" style="edgeStyle=orthogonalEdgeStyle;rounded=0;orthogonalLoop=1;jettySize=auto;html=1;fontSize=16;fontColor=#4D4D4D;" parent="1" source="IHWfYEhJ58rmt1wWLUCN-44" target="IHWfYEhJ58rmt1wWLUCN-42" edge="1">
          <mxGeometry relative="1" as="geometry" />
        </mxCell>
        <mxCell id="IHWfYEhJ58rmt1wWLUCN-44" value="AppClassLoader" style="rounded=0;whiteSpace=wrap;html=1;glass=0;labelBackgroundColor=none;comic=0;sketch=0;fontSize=16;fillColor=#cce5ff;strokeColor=#36393d;" parent="1" vertex="1">
          <mxGeometry x="500" y="965" width="150" height="60" as="geometry" />
        </mxCell>
        <mxCell id="IHWfYEhJ58rmt1wWLUCN-45" value="&lt;span style=&quot;color: rgb(33 , 37 , 41) ; font-family: , , &amp;#34;segoe ui&amp;#34; , &amp;#34;roboto&amp;#34; , &amp;#34;helvetica neue&amp;#34; , &amp;#34;arial&amp;#34; , &amp;#34;noto sans&amp;#34; , &amp;#34;liberation sans&amp;#34; , sans-serif , &amp;#34;apple color emoji&amp;#34; , &amp;#34;segoe ui emoji&amp;#34; , &amp;#34;segoe ui symbol&amp;#34; , &amp;#34;noto color emoji&amp;#34; ; background-color: rgb(255 , 255 , 255)&quot;&gt;java.class.path 指定的 jar包及目录中class&lt;/span&gt;" style="shape=document;whiteSpace=wrap;html=1;boundedLbl=1;glass=0;labelBackgroundColor=none;comic=0;sketch=0;fontSize=16;fontColor=#4D4D4D;size=0.23684210526315788;" parent="1" vertex="1">
          <mxGeometry x="700" y="947.5" width="210" height="95" as="geometry" />
        </mxCell>
        <mxCell id="IHWfYEhJ58rmt1wWLUCN-47" style="edgeStyle=orthogonalEdgeStyle;rounded=0;orthogonalLoop=1;jettySize=auto;html=1;fontSize=16;fontColor=#4D4D4D;strokeWidth=3;strokeColor=#FF0000;" parent="1" source="IHWfYEhJ58rmt1wWLUCN-44" target="IHWfYEhJ58rmt1wWLUCN-45" edge="1">
          <mxGeometry relative="1" as="geometry" />
        </mxCell>
      </root>
    </mxGraphModel>
  </diagram>
</mxfile>
